<svg xmlns="http://www.w3.org/2000/svg" viewBox="0 0 64 64" fill="none">
  <rect width="64" height="64" rx="18" fill="#18212F" />
  <rect
    x="5"
    y="5"
    width="54"
    height="54"
    rx="15"
    stroke="rgba(255,255,255,0.14)"
  />
  <path
    d="M17 17H25V29H39V17H47V47H39V35H25V47H17V17Z"
    fill="url(#paint0_linear_0_1)"
  />
  <path
    d="M32 17H41.3C48.8 17 53 20.6 53 27.2C53 31.8 50.7 34.8 46.3 36.1L54 47H44.4L38.1 37.4H32V47H24V17H32ZM32 23.6V31H40.2C43.2 31 45 29.7 45 27.3C45 24.9 43.2 23.6 40.2 23.6H32Z"
    fill="url(#paint1_linear_0_1)"
  />
  <defs>
    <linearGradient
      id="paint0_linear_0_1"
      x1="17"
      y1="17"
      x2="47"
      y2="47"
      gradientUnits="userSpaceOnUse"
    >
      <stop stop-color="#F4E7D3" />
      <stop offset="0.55" stop-color="#F59E0B" />
      <stop offset="1" stop-color="#0F766E" />
    </linearGradient>
    <linearGradient
      id="paint1_linear_0_1"
      x1="24"
      y1="17"
      x2="54"
      y2="47"
      gradientUnits="userSpaceOnUse"
    >
      <stop stop-color="#0F766E" />
      <stop offset="0.5" stop-color="#F4E7D3" />
      <stop offset="1" stop-color="#F59E0B" />
    </linearGradient>
  </defs>
</svg>
